<?xml version="1.0" encoding="UTF-8" standalone="no"?>
<svg
   xmlns:dc="http://purl.org/dc/elements/1.1/"
   xmlns:cc="http://creativecommons.org/ns#"
   xmlns:rdf="http://www.w3.org/1999/02/22-rdf-syntax-ns#"
   xmlns:svg="http://www.w3.org/2000/svg"
   xmlns="http://www.w3.org/2000/svg"
   id="svg10"
   viewBox="0 0 300 300"
   version="1.1">
  <metadata
     id="metadata16">
    <rdf:RDF>
      <cc:Work
         rdf:about="">
        <dc:format>image/svg+xml</dc:format>
        <dc:type
           rdf:resource="http://purl.org/dc/dcmitype/StillImage" />
        <dc:title></dc:title>
      </cc:Work>
    </rdf:RDF>
  </metadata>
  <defs
     id="defs14" />
  <g
     id="g8"
     transform="matrix(1.0638581,0,0,1.0833605,150,150)">
    <path
       style="fill:#ffffff;stroke:#000000;stroke-width:20;stroke-linecap:square"
       id="path4"
       d="M 124.66,0 C 124.66,68.85 68.846,124.66 0,124.66 -68.85,124.66 -124.66,68.846 -124.66,0 c 0,-68.85 55.814,-124.66 124.66,-124.66 68.85,0 124.66,55.814 124.66,124.66 z" />
    <path
       id="path6"
       d="M 31.046,-42.987 Q 26.685,-56.278 7.372,-56.485 v 46.517 q 1.6613,0.41534 5.1916,1.246 16.198,3.738 22.428,6.853 6.23,3.115 11.629,10.176 6.4377,8.5143 6.4377,20.144 0,11.006 -6.0224,20.455 -6.0223,9.4489 -15.99,14.018 -9.1373,4.361 -23.674,7.0607 v 17.652 q 0,5.3993 -5.8147,5.3993 -5.8147,0 -5.8147,-5.3993 v -17.652 q -15.367,-1.0384 -25.958,-5.5032 -10.591,-4.4648 -16.717,-12.772 -6.1262,-8.3066 -6.1262,-18.275 0,-8.5143 4.1534,-13.706 4.1533,-5.1917 11.006,-5.1917 4.5686,0 7.6836,3.0112 3.115,3.0112 3.115,7.5798 0,8.9297 -10.799,9.5527 1.0383,9.7603 10.072,15.575 9.0335,5.8146 23.57,6.0223 V 3.9458 l -3.115,-0.83066 q -16.821,-4.5687 -22.843,-7.2683 -7.476,-3.3227 -11.629,-9.345 -4.7763,-6.853 -4.7763,-17.444 0,-10.799 6.0223,-20.144 6.0223,-9.345 15.575,-13.498 8.099,-3.5304 20.767,-5.607 v -16.613 q 0,-6.2299 5.8147,-6.2299 5.8147,0 5.8147,6.2299 v 16.613 q 18.69,2.0766 29.696,10.383 11.006,8.3066 11.006,20.351 0,5.3993 -3.3227,9.0335 -3.3227,3.6341 -8.3066,3.6341 -4.1534,0 -7.0607,-2.6996 -2.9073,-2.6997 -2.9073,-6.4377 0,-4.1533 4.5686,-7.0606 z M -4.257,-12.46 v -44.025 q -11.629,0.4154 -19.001,6.6454 -7.3722,6.23 -7.3722,15.783 0,8.3067 4.984,12.772 4.984,4.4653 17.652,7.7875 1.0383,0.2077 3.738,1.0383 z M 7.372,6.438 v 49.84 q 12.668,-0.2077 21.078,-7.476 8.41,-7.2683 8.4105,-18.275 0,-10.176 -6.0223,-15.575 Q 24.8158,9.5526 10.9022,7.0607 10.0715,6.85303 7.3719,6.4377 Z" />
  </g>
</svg>
