<?xml version="1.0" encoding="UTF-8" standalone="no"?>
<svg
   xmlns:dc="http://purl.org/dc/elements/1.1/"
   xmlns:cc="http://creativecommons.org/ns#"
   xmlns:rdf="http://www.w3.org/1999/02/22-rdf-syntax-ns#"
   xmlns:svg="http://www.w3.org/2000/svg"
   xmlns="http://www.w3.org/2000/svg"
   viewBox="0 0 299.99999 300"
   version="1.1"
   id="svg14"
   width="300"
   height="300">
  <metadata
     id="metadata20">
    <rdf:RDF>
      <cc:Work
         rdf:about="">
        <dc:format>image/svg+xml</dc:format>
        <dc:type
           rdf:resource="http://purl.org/dc/dcmitype/StillImage" />
        <dc:title></dc:title>
      </cc:Work>
    </rdf:RDF>
  </metadata>
  <defs
     id="defs18">
    <mask
       id="mask827"
       maskUnits="userSpaceOnUse">
      <rect
         y="10.578907"
         x="79.789062"
         height="297.13983"
         width="44.809322"
         id="rect829"
         style="fill:#cccccc;fill-opacity:1;stroke:none;stroke-width:3.77952766;stroke-linecap:round;stroke-linejoin:bevel;stroke-miterlimit:4;stroke-dasharray:none;stroke-dashoffset:0;stroke-opacity:1" />
    </mask>
    <radialGradient
       id="a"
       cx="216.7"
       cy="393.79"
       r="296.7"
       gradientUnits="userSpaceOnUse">
      <stop
         stop-color="#f4d708"
         offset="0"
         id="stop831" />
      <stop
         stop-color="#fcb400"
         offset="1"
         id="stop833" />
    </radialGradient>
  </defs>
  <g
     style="display:inline"
     id="g830"
     transform="translate(11.314383,-7.8119585)">
    <path
       style="display:inline"
       id="path2"
       d="m 118.26729,134.79869 c 0,14.994 -14.384,119.27 -6.2355,157.14 3.4043,15.821 21.184,13.76 24.144,0 7.5193,-34.945 -5.9416,-67.107 -5.9416,-157.96 0,-12.438 9.5965,-12.76 14.79,-28.808 4.637,-14.329003 -1.9091,-91.498004 -4.0184,-91.498004 -2.4068,0 -1.2287,66.827001 -5.7914,66.827001 -4.6031,0 -2.2752,-65.921001 -5.1864,-66.827001 -2.9112,-0.90632 -0.77603,66.827001 -6.1621,66.827001 -5.4404,0 -1.9044,-66.827001 -4.8157,-66.827001 -2.9112,0 -2.0922,66.827001 -6.5328,66.827001 -4.8887,0 -2.2615,-66.827001 -4.4449,-66.827001 -3.7111,0 -8.0577,72.575001 -5.7495,87.905004 2.3082,15.33 15.944,18.234 15.944,33.229 z" />
    <path
       style="display:inline;fill:#cccccc;fill-opacity:1"
       id="path4"
       d="m 38.039495,131.7474 c 0,91.235 -14.658,128.33 -6.2355,160.54 4.0129,15.348 21.184,13.538 24.144,0 6.8238,-31.203 -5.9416,-71.148 -5.9416,-160.54 0,-10.404 26.009,-8.6166 26.009,-44.181997 0,-44.513 -16.551,-73.987002 -32.325,-73.987002 -14.722,0 -30.704,32.312002 -30.704,73.987002 0,33.396997 25.053,35.605997 25.053,44.181997 z" />
    <path
       style="display:inline"
       id="path6"
       d="m 207.02605,168.54687 c 0,72.45 14.658,97.818 6.2355,123.4 -4.0129,12.188 -21.183,10.752 -24.144,0 -6.8238,-24.778 5.9414,-42.971 5.9414,-122.42 0,-9.7189 -14.296,-23.272 -14.296,-48.316 0,-44.526997 6.4842,-105.05999 20.612,-105.05999 13.544,0 10.443,78.031993 10.443,120.70999 0,18.33 -4.7918,23.101 -4.7918,31.69 z" />
    <path
       mask="url(#mask827)"
       d="m 118.26729,134.79869 c 0,14.994 -14.384,119.27 -6.2355,157.14 3.4043,15.821 21.184,13.76 24.144,0 7.5193,-34.945 -5.9416,-67.107 -5.9416,-157.96 0,-12.438 9.5965,-12.76 14.79,-28.808 4.637,-14.329003 -1.9091,-91.498004 -4.0184,-91.498004 -2.4068,0 -1.2287,66.827001 -5.7914,66.827001 -4.6031,0 -2.2752,-65.921001 -5.1864,-66.827001 -2.9112,-0.90632 -0.77603,66.827001 -6.1621,66.827001 -5.4404,0 -1.9044,-66.827001 -4.8157,-66.827001 -2.9112,0 -2.0922,66.827001 -6.5328,66.827001 -4.8887,0 -2.2615,-66.827001 -4.4449,-66.827001 -3.7111,0 -8.0577,72.575001 -5.7495,87.905004 2.3082,15.33 15.944,18.234 15.944,33.229 z"
       id="path821"
       style="display:inline;fill:#e6e6e6" />
    <g
       style="display:inline"
       transform="matrix(0.1364569,0,0,0.1364569,217.92435,11.756962)"
       id="g856">
      <path
         style="fill:url(#a)"
         d="M 8.551,390.5 193.401,21.7 c 0,0 26.409,-31.504 52.815,0 26.406,31.504 180.19,370.65 180.19,370.65 0,0 3.105,18.534 -27.961,18.534 -31.066,0 -361.94,0 -361.94,0 0,0 -23.299,0 -27.959,-20.38 z"
         id="path838" />
      <path
         style="fill:none;stroke:#e2a713;stroke-width:5"
         d="M 8.551,390.5 193.401,21.7 c 0,0 26.409,-31.504 52.815,0 26.406,31.504 180.19,370.65 180.19,370.65 0,0 3.105,18.534 -27.961,18.534 -31.066,0 -361.94,0 -361.94,0 0,0 -23.299,0 -27.959,-20.38 z"
         id="path840" />
      <path
         d="m 212.5,292.63 c -13.168,-79.969 -19.75,-123.12 -19.75,-129.45 0,-7.703 2.551,-13.926 7.66,-18.676 5.109,-4.75 10.871,-7.121 17.293,-7.121 6.949,0 12.82,2.535 17.609,7.598 4.789,5.063 7.188,11.023 7.188,17.883 0,6.543 -6.668,49.801 -20,129.77 h -10 z m 27,38.17 c 0,6.098 -2.156,11.301 -6.469,15.613 -4.313,4.312 -9.461,6.465 -15.453,6.465 -6.098,0 -11.301,-2.156 -15.613,-6.465 -4.312,-4.309 -6.465,-9.516 -6.465,-15.613 0,-5.992 2.152,-11.141 6.465,-15.453 4.313,-4.312 9.516,-6.469 15.613,-6.469 5.992,0 11.141,2.156 15.453,6.469 4.312,4.313 6.48,9.45 6.48,15.44 z"
         id="path842" />
    </g>
  </g>
</svg>
