<?xml version="1.0" encoding="UTF-8" standalone="no"?>
<svg
   xmlns:dc="http://purl.org/dc/elements/1.1/"
   xmlns:cc="http://creativecommons.org/ns#"
   xmlns:rdf="http://www.w3.org/1999/02/22-rdf-syntax-ns#"
   xmlns:svg="http://www.w3.org/2000/svg"
   xmlns="http://www.w3.org/2000/svg"
   xmlns:sodipodi="http://sodipodi.sourceforge.net/DTD/sodipodi-0.dtd"
   xmlns:inkscape="http://www.inkscape.org/namespaces/inkscape"
   viewBox="0 0 299.99999 300"
   version="1.1"
   id="svg14"
   sodipodi:docname="inedible.svg"
   width="300"
   height="300"
   inkscape:version="0.92.4 (5da689c313, 2019-01-14)">
  <metadata
     id="metadata20">
    <rdf:RDF>
      <cc:Work
         rdf:about="">
        <dc:format>image/svg+xml</dc:format>
        <dc:type
           rdf:resource="http://purl.org/dc/dcmitype/StillImage" />
        <dc:title></dc:title>
      </cc:Work>
    </rdf:RDF>
  </metadata>
  <defs
     id="defs18" />
  <sodipodi:namedview
     pagecolor="#ffffff"
     bordercolor="#666666"
     borderopacity="1"
     objecttolerance="10"
     gridtolerance="10"
     guidetolerance="10"
     inkscape:pageopacity="0"
     inkscape:pageshadow="2"
     inkscape:window-width="1920"
     inkscape:window-height="1176"
     id="namedview16"
     showgrid="false"
     fit-margin-top="0"
     fit-margin-left="0"
     fit-margin-right="0"
     fit-margin-bottom="0"
     inkscape:zoom="1.9666667"
     inkscape:cx="98.331162"
     inkscape:cy="185.38209"
     inkscape:window-x="1920"
     inkscape:window-y="0"
     inkscape:window-maximized="1"
     inkscape:current-layer="svg14" />
  <g
     id="g830"
     inkscape:label="cutlery"
     transform="matrix(0.70227618,0,0,0.70227618,69.639312,38.791525)"
     style="display:inline">
    <path
       inkscape:label="fork"
       inkscape:connector-curvature="0"
       id="path2"
       d="m 118.26729,134.79869 c 0,14.994 -14.384,119.27 -6.2355,157.14 3.4043,15.821 21.184,13.76 24.144,0 7.5193,-34.945 -5.9416,-67.107 -5.9416,-157.96 0,-12.438 9.5965,-12.76 14.79,-28.808 4.637,-14.329003 -1.9091,-91.498004 -4.0184,-91.498004 -2.4068,0 -1.2287,66.827001 -5.7914,66.827001 -4.6031,0 -2.2752,-65.921001 -5.1864,-66.827001 -2.9112,-0.90632 -0.77603,66.827001 -6.1621,66.827001 -5.4404,0 -1.9044,-66.827001 -4.8157,-66.827001 -2.9112,0 -2.0922,66.827001 -6.5328,66.827001 -4.8887,0 -2.2615,-66.827001 -4.4449,-66.827001 -3.7111,0 -8.0577,72.575001 -5.7495,87.905004 2.3082,15.33 15.944,18.234 15.944,33.229 z" />
    <path
       inkscape:label="spoon"
       inkscape:connector-curvature="0"
       id="path4"
       d="m 38.039495,131.7474 c 0,91.235 -14.658,128.33 -6.2355,160.54 4.0129,15.348 21.184,13.538 24.144,0 6.8238,-31.203 -5.9416,-71.148 -5.9416,-160.54 0,-10.404 26.009,-8.6166 26.009,-44.181997 0,-44.513 -16.551,-73.987002 -32.325,-73.987002 -14.722,0 -30.704,32.312002 -30.704,73.987002 0,33.396997 25.053,35.605997 25.053,44.181997 z" />
    <path
       inkscape:label="knife"
       inkscape:connector-curvature="0"
       id="path6"
       d="m 207.02605,168.54687 c 0,72.45 14.658,97.818 6.2355,123.4 -4.0129,12.188 -21.183,10.752 -24.144,0 -6.8238,-24.778 5.9414,-42.971 5.9414,-122.42 0,-9.7189 -14.296,-23.272 -14.296,-48.316 0,-44.526997 6.4842,-105.05999 20.612,-105.05999 13.544,0 10.443,78.031993 10.443,120.70999 0,18.33 -4.7918,23.101 -4.7918,31.69 z" />
  </g>
  <g
     id="g1423"
     style="display:inline;fill-rule:evenodd"
     transform="matrix(0.60109025,0,0,0.60109025,-13.189611,-7.5639825)"
     inkscape:label="stamp">
    <g
       id="g1417"
       style="display:inline;fill:none"
       inkscape:label="line">
      <path
         id="path1413"
         d="M 495.3,262.13 C 495.3,136.9 396.277,35.39 274.13,35.39 151.983,35.39 52.96,136.91 52.96,262.13 c 4.6e-5,125.23 99.023,226.74 221.17,226.74 122.15,-3e-5 221.17,-101.52 221.17,-226.74 l -221.17,2e-4 H 495.3 Z"
         transform="rotate(46.028,274.13,262.13)"
         inkscape:connector-curvature="0"
         style="display:inline;stroke:#bf0000;stroke-width:37.11700058" />
    </g>
    <path
       id="path1421"
       d="M 112.2,91.06 404.51,398.13"
       inkscape:connector-curvature="0"
       style="display:inline;fill:none;stroke:#bf0000;stroke-width:37.5" />
  </g>
</svg>
