<?xml version="1.0" encoding="UTF-8"?>
<svg width="800" height="800" version="1.1" viewBox="0 0 800.00001 800.00001" xmlns="http://www.w3.org/2000/svg">
 <defs>
  <mask id="e" maskUnits="userSpaceOnUse">
   <circle cx="400" cy="652.36" r="400" color="#000000" color-rendering="auto" fill="#fff" fill-rule="evenodd" image-rendering="auto" shape-rendering="auto" solid-color="#000000" style="isolation:auto;mix-blend-mode:normal"/>
  </mask>
  <mask id="f" maskUnits="userSpaceOnUse">
   <circle cx="400" cy="400" r="400" color="#000000" color-rendering="auto" fill="#fff" fill-rule="evenodd" image-rendering="auto" shape-rendering="auto" solid-color="#000000" style="isolation:auto;mix-blend-mode:normal"/>
  </mask>
  <linearGradient id="d" x1="361.79" x2="134.79" y1="401.76" y2="671.04" gradientUnits="userSpaceOnUse">
   <stop stop-opacity=".42" offset="0"/>
   <stop stop-opacity="0" offset="1"/>
  </linearGradient>
 </defs>
 <g transform="translate(0 -252.36)">
  <circle cx="400" cy="652.36" r="400" color="#000000" color-rendering="auto" fill="#1c8adb" fill-rule="evenodd" image-rendering="auto" shape-rendering="auto" solid-color="#000000" style="isolation:auto;mix-blend-mode:normal"/>
  <path transform="translate(0 252.36)" d="m395.31 185.38c-24.566 0-44.293 6.9969-59.182 20.992l-320.05 320.04c34.596 104.26 58.832 212.08 260.63 258.86l194.28-194.28c3.9394-3.7498 7.3798-7.9303 10.307-12.555 7.4443-11.613 11.168-23.97 11.168-37.072 0-11.911-2.9782-23.078-8.9336-33.5-4.5163-8.1062-10.888-15.804-19.098-23.1l26.914-26.926c10.869-11.911 16.303-26.277 16.303-43.102 0-11.166-2.5316-21.514-7.5938-31.043-4.9132-9.5287-12.656-18.76-23.227-27.693-8.1887-6.6999-23.971-17.195-47.346-31.488-0.95231-0.57899-1.8537-1.1362-2.7871-1.707l61.971-59.932c-3.1266-25.162-12.508-44.368-28.141-57.619s-37.369-19.877-65.211-19.877z" fill="url(#d)" mask="url(#f)"/>
  <path d="m306.2 786.36 40.423-5.8066q6.2532 29.033 19.876 40.646 13.623 11.836 37.073 11.836 22.78 0 35.509-11.613 12.953-11.613 12.953-27.246 0-11.39-8.0398-20.993-13.846-16.75-75.932-54.716-33.053-20.323-46.229-31.713-12.953-11.613-21.216-27.246-8.2632-15.633-8.2632-32.606 0-21.44 13.4-38.859 13.4-17.42 36.849-24.343-15.856-15.186-22.333-27.916-6.4765-12.953-6.4765-27.469 0-28.586 22.333-49.579t59.182-20.993q41.762 0 65.212 19.876t28.139 57.619l-41.762 4.2432q-4.6899-27.246-16.526-37.966-11.613-10.72-31.489-10.72-20.546 0-33.276 11.166-12.506 10.943-12.506 24.343 0 11.613 8.0398 21.44 12.506 15.186 68.339 49.132 35.063 21.44 47.346 31.489 15.856 13.4 23.226 27.693 7.5932 14.293 7.5932 31.043 0 25.236-16.303 43.102-9.3798 10.273-34.393 20.77 17.866 13.623 26.576 29.256 8.9332 15.633 8.9332 33.499 0 19.653-11.166 37.073-11.166 17.643-32.159 26.799-20.993 9.3798-45.336 9.3798-42.656 0-67.669-21.44-25.013-21.216-29.926-59.182zm130.65-70.125q16.526-8.4865 24.566-19.653 8.2632-11.39 8.2632-22.11 0-12.73-11.613-26.799-11.836-14.07-50.249-37.743-30.596-18.76-45.559-30.819-18.09 10.273-25.906 20.546-7.5932 10.273-7.5932 22.78 0 14.07 10.273 26.799 10.273 12.73 46.229 33.946 29.926 17.643 51.589 33.053z" fill="#fff" mask="url(#e)"/>
 </g>
</svg>
