<?xml version="1.0" encoding="UTF-8"?>
<svg viewBox="0 0 170 170" xmlns="http://www.w3.org/2000/svg">
 <g transform="translate(0 -882.36)" fill-rule="evenodd">
  <path d="m85.575,891.46215 .3.3h1.5l.6.3h.3l.6.3 .6.3 1.2.6 .3.6 .3.3 .6.3 .3.6 .9.9 36.675,63.6 36.3,63.30005 .6,1.2 .3.6 .3.6v1.5l.3.6-.3.9v1.2l-.3.6-.3.6v.6l-.6.6-.3.6-.3.3-.6.6-.3.6-.3.3-.6.3-.6.3-.6.3-.3.3-.6.3h-.6l-.6.3h-1.2l-.6.3h-73.275l-72.975-.3h-2.1l-.6-.3h-.6l-.6-.3-.3-.3-.6-.3-1.2-.6-.6-.6-.3-.3-.3-.6-.3-.3-.3-.6-.6-.6v-.6l-.3-.3v-.6l-.3-.3v-1.2l-.3-.9 .3-.6v-1.5l.3-.6 .3-.6v-.6l.6-.6 36.3-63.30005 36.675-63.3 .3-.6 .6-.6 .3-.6 1.2-1.2 .6-.3 .3-.3 .9-.3 .6-.3h.6l.6-.3h1.5l.6-.3" fill="#f9d100"/>
  <path d="m86.175,895.96215 .3.3 .6.3 .6.3h.3l.3.6 .3.3 .3.3 .3.3 72.975,126.60005 .6.6v.6l.3.3v1.2l-.3.9-.3.6-.3.6-.6.6-.6.6-.6.3-.6.3-.9.3h-147.45l-.3-.3h-.6l-.3-.3h-.3l-.3-.3-.6-.3-.6-.6-.3-.9-.3-.6-.3-.9v-.6l.3-.9 .3-.6v-.6h.3l72.975-126.60005v-.3l.3-.3 .3-.3 .3-.3 .3-.3 .3-.3h.3l.3-.3h.9l.3-.3h1.5zm61.575,125.10005h-124.95l62.475-108.30005 62.475,108.30005" fill="#1f1a17"/>
  <path d="m99.675,994.96218 1.5-.3 1.5-.6 3-1.2 1.5-.6 1.2-.6 1.5-.6 1.5-.6 .3-.30003h.6v-.3h.3l.3-.3h1.5v.3l.3.3v1.80003l.3.3v.3l.3.3v.3l.3.3v.3l.3.3v.3l-.3.3h-1.8l-.6-.6h-.9l-.9-.3h-3.3l-.6.3-7.8,3.3v-2.4zm-3,11.10002 1.5.9 .6.3 .6.3 .9.3h.6l.9.3 .6.3 .9.3 .9.3 .6.3 .6.3h.6l.6.3 1.2.6 .6.3 .6.3 .3.3h.3v.3h.6v.3h1.2v-.3h.3l.3-.3v-1.5h.3v-.3l.3-.3v-.3h.3v-.9h-.6l-.6.3h-2.1l-.6-.3h-.6l-.6-.3h-.6l-9.3-3.6-.3.3v.3l-.6.6v.3l-.3.3zm1.5-2.7h.3v.3h.9v.3h.3l.9.3 .9.6 1.2.3 .9.3 1.2.3 .9.3 1.2.3 .9.3 .6.3 .6.3h3l.3-.3h1.2l.3.3v.3l.3.3v.9l-.3.3v.6h-.3v.3l-.3.3-.3.3v1.2l-.3.6-.6.6h-.3l-.3.3h-.9l-.6-.3-.3-.3h-.3l-.6-.3-.6-.6h-.6l-.3-.3-.6-.3-.6-.3h-.6l-.3-.3-.6-.3-.6-.3h-.6l-.6-.3-6.9-2.7-.9,1.2-1.2.9-.9.6-1.5.6-1.2.6-1.2.3-1.5.3h-3l-1.5-.3-1.5-.3-1.2-.6-1.5-.6-1.2-.9-1.2-1.2-.9-1.2-9.9,3.9h-.3l-.3.3-.6.3h-.3l-.3.3-.6.3h-.3l-.9.9h-.3v.3l-.3.3h-1.5l-.3-.3h-.3v-.3l-.3-.3-.3-.3v-.9l-.3-.3v-.6l-.3-.3v-.3l-.3-.3v-.6h-.3v-.9l.3-.3v-.3h.3l.3-.3h2.4l.3.3 .3-.3h1.2l.3-.3 1.2-.3 1.2-.6 1.5-.6 1.2-.3 1.2-.6 1.2-.6 1.5-.3 1.2-.6 .6-.3-.3-.3v-.9l-.3-.3v-.6l-1.8-.60002-1.5-.6-1.8-.6-1.5-.3-1.8-.6-1.8-.6-1.8-.6-1.5-.3-.6-.3h-2.1l-.6.3h-.9l-.3.3h-.3l-.3-.3h-.3l-.3-.3v-.3h-.3v-1.5l.3-.3v-.3l.3-.3 .3-.3v-1.8l.3-.60003v-.3l.3-.6 .6-.3h.3v-.3h.3l.3.3h.3l.3.3h.3l.6.6h.3l.3.3h.6l.6.60003 .9.3 .6.3h.6l.9.3 .9.3 .6.3 .9.3 .6.3 .9.3 1.8.6 .6.3h.9l.6.3 .9.3-.3-1.2-.6-1.8-.3-.6-.3-.6-.3-.60003-.6-.3-.3-.6-.3-.3-.3-.3-.3-.3v-.3l-.6-.6-.3-.6-.3-.6-.3-.3v-3.6l.3-.6v-.6l.3-.6v-.3l.3-.6v-.9l-.3-.3v-.3l-.3-.3v-.6h-.3v-.3l-.9-1.5-.6-1.2-.3-1.5-.3-1.2-.3-1.5v-1.5l.3-1.8 .3-1.5 .6-1.8 .6-1.8 .9-1.5 .9-1.5 2.4-2.4 2.4-2.1 3-1.8 3-1.2 3.3-.6 3.6-.3 3.9.6 3.9.9 3.6,1.2 3,2.1 2.4,2.1 2.1,2.4 .9,1.5 .6,1.2 .3,1.5 .3,1.5 .3,2.1v4.2l-.3,2.1-.6,2.1-.6,2.1-.9,2.1-.9,2.1v.3h.3v.3l.3,1.2 .3.9v.9l-.3.9v.6l-.6.9-.3.6-.6.6-.3.3-.3.6-.3.3-.3.60003-.3.6-.3.3-.3.6v.6l-.3.3v.6h.3v-.3h.9l.3-.3 1.2-.3 .9-.3 .9-.6 .9-.3 1.2-.3 .9-.6 1.8-.60003 .6-.3 .3-.3h.6l.6-.6h.3l.6-.6h.3l.3-.3h1.2v.3h.3l.6.3v.3l.6.6v.6l.3.30003v2.1h.3l.3.3v.3l.3.3v1.8l-.3.3h-.3l-.3.3h-1.8l-1.2-.6h-1.2l-.9-.3h-2.7l-.6.3-.9.3-1.2.6-.9.3-.9.6-1.2.3-.9.6-.9.3-.9.3-.3.6v1.20002l-.3.3v.6l-.3.6v.3l-.3.6v.6h-.3zm-23.1,2.1-1.2.6-1.2.3-1.2.6-1.2.3-1.2.6-1.2.3-1.2.6-1.2.6h-.3l-.6.3h-.3l-.3.3-.6.3h-.3l-.3.3-.6.3h-.3l-.3.3-.3.3h-.3v.3h-1.2v-1.2l-.3-.3v-.3l-.3-.3v-.3l-.3-.6-.3-.3v-.6h.3v-.3h.9l.6.3h1.5l.3-.3h.3l11.4-4.5v.3h.3v.6l.3.3v.3l.3.3v.6h.3zm-2.4-6.90002-.9-.3-1.2-.3-.9-.3-1.5-.3-1.2-.3-1.5-.6-1.2-.3-1.5-.3-.6-.3-.3-.3h-.6l-.6-.3h-.9l-.3-.3h-.3l-.3-.3h-2.4l-.3.3h-.6v.3h-.9v-.3h-.3v-.3h.3v-.3l.3-.3v-.3h.3v-.6l.3-.3v-.6h-.3v-.9l.3-.6 .3-.30003h.6l.6.30003 .3.3 .3.3h.6l.6.6h.6l.3.3 1.5.3 1.5.6 1.5.6 1.5.3 1.5.6 1.5.6 1.5.3 1.5.6v.3l.3.3v.9l.3.3v.6l.3.3zm3.9-3h.3v-.3h.3v-.3h.6v-.3h.3l.3.3h.3v.3h1.2v.3h.3l.3.3v.3h1.5l.3.3h.9l.3-.3v.3h.6v.3h.9l.3-.3h.6v.3h1.2v-.3h.3l.3-.3 .3.3h.9v-.3h.3v-.3h.6l.3-.3h.3v.3h.6l.3-.3 .3-.3 .3-.3h1.2l.3-.3v-.3h.3l.3-.3h1.5v.3h.6v.3l.3-1.2 .3-1.2 .3-.9 .3-.6 .9-.90003 .6-.6 1.2-.6 1.2-.9 .9-.6 .6-.9v-.9l.3-.9-.3-1.2-.6-1.8-.3-.9-.3-1.2-.3-1.2-.3-.9v-3.9l.6-1.8 .3-1.8 .3-.9v-2.1l-.3-.9v-.6l-.3-.6-.3-.9v-.3h.3l.3.3 .3.6 .3.3 .3.6v.6l.3.6v.3l.3.6v.9l-.3.9v.9l-.9,2.7-.3.9v3.6l.3.6v.6l.3.6v.6l.3.6 .6-1.5 .6-1.5 .6-1.8 .6-1.8 .3-1.8 .3-2.1v-2.4l-.3-2.1-.9-3-1.5-2.4-1.8-2.4-2.4-1.8-2.7-1.8-3.3-1.2-3.6-.9-3.9-.6-2.7.3-3,.6-3,.9-3,1.5-1.2.9-1.2.9-1.5,1.2-.9,1.2-.9,1.5-.9,1.5-.9,1.8-.6,1.8-.3,1.5-.3,1.5v1.5l.3,1.5 .3,1.5 .6,1.5 .9,1.5 .9,1.5 .3-.9v-.6l.3-.9v-2.4l-.3-.9-.3-.9v-3.6l.3-.6v-.6l.3-.6v-.3h.6v1.2l-.3.6v3l.3.6v.6l.3.9v4.5l-.3.9-.3.6-.3.6v.6l-.3.9-.3.6-.3.6v.6l-.3.9v2.1l.6.9 .3.9 .9.9 .9.6 .9.3 1.2.6 .9.3 .9.6 .6.60003 .6.9 .3.9 .6.9 .6,2.4zm20.4.6v2.1l-.3.3v.6h-.3v.3h-.6v.3h-.3v.60002h-.3v.3h-.6l-.3.3h-.3v.6h-.3v.3h-.3l-.3.3h-1.2v.3l-.3.3h-.3l-.3.3h-1.5v.3h-1.5v-.3h-.3l-.3.3h-.3l-.3.3h-.6v-.3h-.9l-.3.3h-1.2l-.3-.3h-1.8l-.3-.3h-.3v-.3h-1.2v-.3h-.3v-.3h-.3v-.3h-.9v-.3h-.6v-.6h-.3l-.3-.3h-.3v-.3l-.3-.3-.3-.30002-.3-.6v-.6l-.3-.6v-1.5l-.3-1.5-.3-1.2-.6-1.2-.3-.9-.6-.6-1.8-1.20003-.9-.3 .3.90003 .6.6 .3.9v.9l.6,1.8v.9l.3,1.2 .3,1.5 .3,1.2 .3.90002 .3,1.2 .6.9 .3.9 .3,1.2 .6.9 .9,1.2 1.5,1.5 1.2.9 1.5.6 1.5.6 1.5.3h3l1.5-.3 1.5-.6 1.5-.6 1.5-.9 1.2-.9 1.2-1.2 .9-1.5 .9-1.5 .3-.6 .6-.9v-.9l.3-1.20002v-.9l.3-.9v-3.3l.3-1.2 .3-.9v-.6l.3-.6 .3-.6 .3-.30003 .3-.9-1.2.9-.9.90003-.6.9-.3.6-.3.9v1.8l-.3.9zm-6.6,4.20002v-.3h.3v-.30002h.6v.30002l.3.3v1.2h-.3v.3l-.3.3h-.3v-.3h-.3v-1.5zm2.1-.90002 .3-.3h.3l.3-.3v2.10002h-.9v-1.50002zm1.8-.9v-.3h.3v-.3h.3v1.5l-.3.3h-.3v-1.2zm1.5-1.8-.3.3v.9l.3.3h.3l.3-.3v-.6h-.3v-.6h-.3zm-1.8-1.5v-.3h.6v.3h.3v1.2h-.3v.3h-.9v-1.2h.3v-.3zm-2.1,2.4v.3h.3v.3h.3v-.3h.3v-.3h.3v-.9h-.3v-.6h-.6-.3v.3l-.3.3h.3v.9zm-2.4-.6 .6-.6h.3l.6.6v1.5l-.3.3h-1.2v-1.8zm-2.1.6v-.3l.3-.3h.6v.3h.3v2.1h-.9v-.3h-.3v-1.5zm-2.1.6v-.6h.3v-.3h.3v.3h.3l.3.3v1.8h-1.2v-.3l-.3-.3 .3-.3v-.6zm3,2.40002v-.3h.9v2.1h-.9v-1.8zm-1.8,1.8h-.3v-.6h-.3v-.6l.3-.3v-.3h.9l.3.3v.6l-.3.3v.6h-.6zm-2.7-1.5v-.3h1.2v1.2l-.3.3v.3l-.3.3h-.3l-.3-.3v-1.5zm-2.1-.6h.3v-.3h.3v.3h.6v1.5h-.3v.3h-.6v-.3h-.3v-1.5zm-1.8,0v-.60002h.9v.30002l.3.3v.9h-.3v.3h-.6l-.3-.3v-.9zm-1.8-1.20002h.3v-.3h.3v.3h.3v1.50002h-.6l-.3-.3v-1.20002zm-1.5-1.2h.9v1.5h-.3l-.3-.3v-.9l-.3-.3zm.9-.9h.3v.3h.6v-.6l.3-.3v-.3h-.3v-.3l-.3-.3h-.3v.3h-.3v1.2zm1.5.3 .3-.3v-.6h.3l.3.3 .3.3v1.2h-.3v.3h-.3v-.3h-.3v-.3h-.3v-.6zm2.1,1.8v-.6h-.3v-.6h.3v-.6l.3-.3h.3v.3h.3v1.8h-.9zm1.8,0v-1.5h.3v-.3h.9v.6h.3v1.5h-.3v.3h-.6l-.3-.3h-.3v-.3zm-9.9-21.00003v-.3l.3-.6 .9-.9 .6-.3 .6-.3 1.8-.6h3.3l1.2.6 .6.3 .3.6 .3.6 .3.3v1.5l-.3.6v.6l-.3.3-.3.6-.3.6-.6.6-.3.6-1.2,1.2-.6.3h-.6l-.6.3h-.6l-.6-.3-.6-.3-.6-.3-.6-.3-.6-.9-.3-.6-.6-.6-.3-.6-.3-.6v-.9l-.3-.6 .3-.6zm10.8,5.4 .6-.3 .3-.3h.3l.6-.3 .3.3h.6l.3.3 .6.3 .3.9 .6.9 .3.9 .3.6v.9l.3.9v2.10003l-.3.6-.6.3-.6.3h-1.2l-.6-.3-.6-.3-.6.3-.6.3h-1.2l-.6-.3-.3-.3-.3-.6v-1.80003l.6-1.8 .3-1.2 .3-.9 .6-.6 .3-.9zm6-3.3-.3-.6-.3-.9v-1.2l.3-.3 .3-.6 .3-.3 .6-.3 .6-.6 .6-.3 .6-.3h.6l.9-.3h.6l.6-.3h.6l.9.3h.6l.6.3 .9.9 .3.6v3.3l-.3.9-.3.6-.3.9-.3.6-.6.9-.6.6-.6.3-.6.3h-.9l-.6-.3-.9-.3-.6-.6-.6-.3-.3-.3-.3-.6-.6-.3-.3-.3v-.6l-.3-.3-.3-.6" fill="#1f1a17"/>
 </g>
</svg>
